<svg width="229" height="240" viewBox="0 0 229 240" fill="none" xmlns="http://www.w3.org/2000/svg">
<path d="M228.252 240L0.000199318 120L228.252 -5.84126e-06L228.252 240Z" fill="#152D2F"/>
<path d="M228.252 240L0.000199318 120L228.252 -5.84126e-06L228.252 240Z" fill="#152D2F"/>
<path d="M228.252 240L0.000199318 120L228.252 -5.84126e-06L228.252 240Z" stroke="white" stroke-width="8"/>
<mask id="path-3-inside-1" fill="white">
<path fill-rule="evenodd" clip-rule="evenodd" d="M228.252 240L228.252 -5.84126e-06L0.000199318 120L228.252 240ZM226.574 237.222L226.574 2.77849L3.60684 120L226.574 237.222Z"/>
</mask>
<path fill-rule="evenodd" clip-rule="evenodd" d="M228.252 240L228.252 -5.84126e-06L0.000199318 120L228.252 240ZM226.574 237.222L226.574 2.77849L3.60684 120L226.574 237.222Z" fill="white"/>
<path d="M228.252 240L224.529 247.081L236.252 253.244V240H228.252ZM228.252 -5.84126e-06H236.252V-13.2441L224.529 -7.08105L228.252 -5.84126e-06ZM0.000199318 120L-3.72255 112.919L-17.1914 120L-3.72255 127.081L0.000199318 120ZM226.574 2.77849H234.574V-10.4656L222.851 -4.30255L226.574 2.77849ZM226.574 237.222L222.851 244.303L234.574 250.466V237.222H226.574ZM3.60684 120L-0.115913 112.919L-13.5847 120L-0.115913 127.081L3.60684 120ZM218.574 2.77849L218.574 237.222H234.574L234.574 2.77849H218.574ZM7.32959 127.081L230.296 9.85952L222.851 -4.30255L-0.115913 112.919L7.32959 127.081ZM230.296 230.14L7.32959 112.919L-0.115913 127.081L222.851 244.303L230.296 230.14ZM220.252 -5.84126e-06L220.252 240H236.252L236.252 -5.84126e-06H220.252ZM3.72295 127.081L231.975 7.08103L224.529 -7.08105L-3.72255 112.919L3.72295 127.081ZM231.975 232.919L3.72295 112.919L-3.72255 127.081L224.529 247.081L231.975 232.919Z" fill="white" mask="url(#path-3-inside-1)"/>
<path d="M106.574 119.161L69.6505 83.9164L228.252 0.000290751L106.574 119.161Z" fill="#17652D"/>
<path d="M106.574 119.161L69.6505 83.9164L228.252 0.000290751L106.574 119.161Z" fill="#17652D"/>
<path d="M106.574 119.161L69.6505 83.9164L228.252 0.000290751L106.574 119.161Z" stroke="white" stroke-width="8"/>
<mask id="path-7-inside-2" fill="white">
<path fill-rule="evenodd" clip-rule="evenodd" d="M106.559 116.827L218.817 6.89127L72.4942 84.3106L106.559 116.827ZM106.574 119.161L228.252 0.000290751L69.6505 83.9164L106.574 119.161Z"/>
</mask>
<path fill-rule="evenodd" clip-rule="evenodd" d="M106.559 116.827L218.817 6.89127L72.4942 84.3106L106.559 116.827ZM106.574 119.161L228.252 0.000290751L69.6505 83.9164L106.574 119.161Z" fill="white"/>
<path d="M218.817 6.89127L224.414 12.6069L215.075 -0.179947L218.817 6.89127ZM106.559 116.827L101.035 122.614L106.63 127.954L112.156 122.542L106.559 116.827ZM72.4942 84.3106L68.7528 77.2394L58.9395 82.4316L66.9704 90.0974L72.4942 84.3106ZM106.574 119.161L101.05 124.948L106.645 130.289L112.171 124.877L106.574 119.161ZM228.252 0.000290751L233.849 5.71596L224.511 -7.07092L228.252 0.000290751ZM69.6505 83.9164L65.9092 76.8452L56.0959 82.0374L64.1267 89.7032L69.6505 83.9164ZM213.219 1.17559L100.961 111.111L112.156 122.542L224.414 12.6069L213.219 1.17559ZM76.2356 91.3818L222.558 13.9625L215.075 -0.179947L68.7528 77.2394L76.2356 91.3818ZM112.082 111.04L78.018 78.5237L66.9704 90.0974L101.035 122.614L112.082 111.04ZM112.097 113.374L75.1743 78.1295L64.1267 89.7032L101.05 124.948L112.097 113.374ZM222.655 -5.71538L100.976 113.445L112.171 124.877L233.849 5.71596L222.655 -5.71538ZM73.3919 90.9876L231.993 7.0715L224.511 -7.07092L65.9092 76.8452L73.3919 90.9876Z" fill="white" mask="url(#path-7-inside-2)"/>
<path d="M228.252 240L0.000199318 120L73.8464 81.3986L228.252 240Z" fill="#0B4224"/>
<path d="M228.252 240L0.000199318 120L73.8464 81.3986L228.252 240Z" fill="#0B4224"/>
<path d="M228.252 240L0.000199318 120L73.8464 81.3986L228.252 240Z" stroke="white" stroke-width="8"/>
<mask id="path-11-inside-3" fill="white">
<path fill-rule="evenodd" clip-rule="evenodd" d="M228.252 240L73.8464 81.3986L0.000199318 120L228.252 240ZM219.672 233.593L73.5159 83.4651L3.61493 120.004L219.672 233.593Z"/>
</mask>
<path fill-rule="evenodd" clip-rule="evenodd" d="M228.252 240L73.8464 81.3986L0.000199318 120L228.252 240ZM219.672 233.593L73.5159 83.4651L3.61493 120.004L219.672 233.593Z" fill="white"/>
<path d="M228.252 240L224.529 247.081L233.984 234.419L228.252 240ZM73.8464 81.3986L79.5785 75.8181L75.4216 71.5481L70.1403 74.3088L73.8464 81.3986ZM0.000199318 120L-3.70583 112.91L-17.23 119.98L-3.72255 127.081L0.000199318 120ZM73.5159 83.4651L79.2481 77.8846L75.0911 73.6147L69.8099 76.3753L73.5159 83.4651ZM219.672 233.593L215.95 240.674L225.405 228.013L219.672 233.593ZM3.61493 120.004L-0.0911015 112.914L-13.6153 119.984L-0.107821 127.085L3.61493 120.004ZM67.7837 89.0456L213.94 239.174L225.405 228.013L79.2481 77.8846L67.7837 89.0456ZM7.32097 127.094L77.2219 90.5549L69.8099 76.3753L-0.0911015 112.914L7.32097 127.094ZM223.395 226.512L7.33768 112.923L-0.107821 127.085L215.95 240.674L223.395 226.512ZM231.975 232.919L3.72295 112.919L-3.72255 127.081L224.529 247.081L231.975 232.919ZM68.1142 86.9791L222.52 245.581L233.984 234.419L79.5785 75.8181L68.1142 86.9791ZM3.70623 127.09L77.5524 88.4884L70.1403 74.3088L-3.70583 112.91L3.70623 127.09Z" fill="white" mask="url(#path-11-inside-3)"/>
</svg>
