<svg width="687" height="241" viewBox="0 0 687 241" fill="none" xmlns="http://www.w3.org/2000/svg">
<path d="M228.252 240L0.000199318 120L228.252 -5.84126e-06L228.252 240Z" fill="#152D2F"/>
<path d="M228.252 240L0.000199318 120L228.252 -5.84126e-06L228.252 240Z" fill="#152D2F"/>
<path d="M228.252 240L0.000199318 120L228.252 -5.84126e-06L228.252 240Z" stroke="white" stroke-width="8"/>
<mask id="path-3-inside-1" fill="white">
<path fill-rule="evenodd" clip-rule="evenodd" d="M228.252 240L228.252 -5.84126e-06L0.000199318 120L228.252 240ZM226.574 237.222L226.574 2.77849L3.60684 120L226.574 237.222Z"/>
</mask>
<path fill-rule="evenodd" clip-rule="evenodd" d="M228.252 240L228.252 -5.84126e-06L0.000199318 120L228.252 240ZM226.574 237.222L226.574 2.77849L3.60684 120L226.574 237.222Z" fill="white"/>
<path d="M228.252 240L224.529 247.081L236.252 253.244V240H228.252ZM228.252 -5.84126e-06H236.252V-13.2441L224.529 -7.08105L228.252 -5.84126e-06ZM0.000199318 120L-3.72255 112.919L-17.1914 120L-3.72255 127.081L0.000199318 120ZM226.574 2.77849H234.574V-10.4656L222.851 -4.30255L226.574 2.77849ZM226.574 237.222L222.851 244.303L234.574 250.466V237.222H226.574ZM3.60684 120L-0.115913 112.919L-13.5847 120L-0.115913 127.081L3.60684 120ZM218.574 2.77849L218.574 237.222H234.574L234.574 2.77849H218.574ZM7.32959 127.081L230.296 9.85952L222.851 -4.30255L-0.115913 112.919L7.32959 127.081ZM230.296 230.14L7.32959 112.919L-0.115913 127.081L222.851 244.303L230.296 230.14ZM220.252 -5.84126e-06L220.252 240H236.252L236.252 -5.84126e-06H220.252ZM3.72295 127.081L231.975 7.08103L224.529 -7.08105L-3.72255 112.919L3.72295 127.081ZM231.975 232.919L3.72295 112.919L-3.72255 127.081L224.529 247.081L231.975 232.919Z" fill="white" mask="url(#path-3-inside-1)"/>
<path d="M106.574 119.161L69.6505 83.9164L228.252 0.000290751L106.574 119.161Z" fill="#17652D"/>
<path d="M106.574 119.161L69.6505 83.9164L228.252 0.000290751L106.574 119.161Z" fill="#17652D"/>
<path d="M106.574 119.161L69.6505 83.9164L228.252 0.000290751L106.574 119.161Z" stroke="white" stroke-width="8"/>
<mask id="path-7-inside-2" fill="white">
<path fill-rule="evenodd" clip-rule="evenodd" d="M106.559 116.827L218.817 6.89127L72.4942 84.3106L106.559 116.827ZM106.574 119.161L228.252 0.000290751L69.6505 83.9164L106.574 119.161Z"/>
</mask>
<path fill-rule="evenodd" clip-rule="evenodd" d="M106.559 116.827L218.817 6.89127L72.4942 84.3106L106.559 116.827ZM106.574 119.161L228.252 0.000290751L69.6505 83.9164L106.574 119.161Z" fill="white"/>
<path d="M218.817 6.89127L224.414 12.6069L215.075 -0.179947L218.817 6.89127ZM106.559 116.827L101.035 122.614L106.63 127.954L112.156 122.542L106.559 116.827ZM72.4942 84.3106L68.7528 77.2394L58.9395 82.4316L66.9704 90.0974L72.4942 84.3106ZM106.574 119.161L101.05 124.948L106.645 130.289L112.171 124.877L106.574 119.161ZM228.252 0.000290751L233.849 5.71596L224.511 -7.07092L228.252 0.000290751ZM69.6505 83.9164L65.9092 76.8452L56.0959 82.0374L64.1267 89.7032L69.6505 83.9164ZM213.219 1.17559L100.961 111.111L112.156 122.542L224.414 12.6069L213.219 1.17559ZM76.2356 91.3818L222.558 13.9625L215.075 -0.179947L68.7528 77.2394L76.2356 91.3818ZM112.082 111.04L78.018 78.5237L66.9704 90.0974L101.035 122.614L112.082 111.04ZM112.097 113.374L75.1743 78.1295L64.1267 89.7032L101.05 124.948L112.097 113.374ZM222.655 -5.71538L100.976 113.445L112.171 124.877L233.849 5.71596L222.655 -5.71538ZM73.3919 90.9876L231.993 7.0715L224.511 -7.07092L65.9092 76.8452L73.3919 90.9876Z" fill="white" mask="url(#path-7-inside-2)"/>
<path d="M228.252 240L0.000199318 120L73.8464 81.3986L228.252 240Z" fill="#0B4224"/>
<path d="M228.252 240L0.000199318 120L73.8464 81.3986L228.252 240Z" fill="#0B4224"/>
<path d="M228.252 240L0.000199318 120L73.8464 81.3986L228.252 240Z" stroke="white" stroke-width="8"/>
<mask id="path-11-inside-3" fill="white">
<path fill-rule="evenodd" clip-rule="evenodd" d="M228.252 240L73.8464 81.3986L0.000199318 120L228.252 240ZM219.672 233.593L73.5159 83.4651L3.61493 120.004L219.672 233.593Z"/>
</mask>
<path fill-rule="evenodd" clip-rule="evenodd" d="M228.252 240L73.8464 81.3986L0.000199318 120L228.252 240ZM219.672 233.593L73.5159 83.4651L3.61493 120.004L219.672 233.593Z" fill="white"/>
<path d="M228.252 240L224.529 247.081L233.984 234.419L228.252 240ZM73.8464 81.3986L79.5785 75.8181L75.4216 71.5481L70.1403 74.3088L73.8464 81.3986ZM0.000199318 120L-3.70583 112.91L-17.23 119.98L-3.72255 127.081L0.000199318 120ZM73.5159 83.4651L79.2481 77.8846L75.0911 73.6147L69.8099 76.3753L73.5159 83.4651ZM219.672 233.593L215.95 240.674L225.405 228.013L219.672 233.593ZM3.61493 120.004L-0.0911015 112.914L-13.6153 119.984L-0.107821 127.085L3.61493 120.004ZM67.7837 89.0456L213.94 239.174L225.405 228.013L79.2481 77.8846L67.7837 89.0456ZM7.32097 127.094L77.2219 90.5549L69.8099 76.3753L-0.0911015 112.914L7.32097 127.094ZM223.395 226.512L7.33768 112.923L-0.107821 127.085L215.95 240.674L223.395 226.512ZM231.975 232.919L3.72295 112.919L-3.72255 127.081L224.529 247.081L231.975 232.919ZM68.1142 86.9791L222.52 245.581L233.984 234.419L79.5785 75.8181L68.1142 86.9791ZM3.70623 127.09L77.5524 88.4884L70.1403 74.3088L-3.70583 112.91L3.70623 127.09Z" fill="white" mask="url(#path-11-inside-3)"/>
<path d="M308.05 48.6582C310.632 48.6582 318.113 41.6976 318.113 30.4688C318.113 16.2194 306.064 2.42963 287.13 2.42963H258V108.283H298.318C320.298 108.283 331.619 91.8005 331.619 76.1721C331.619 59.1647 318.312 48.6582 308.05 48.6582ZM288.454 23.1143C293.419 23.1143 298.119 27.3169 298.119 33.2925C298.119 39.465 293.154 43.7989 288.056 43.7989H279.384V23.1143H288.454ZM296.332 87.5322H279.384V62.448H296.266C306.461 62.448 310.698 68.5549 310.698 74.6618C310.698 82.8043 303.283 87.5322 296.332 87.5322Z" fill="white"/>
<path d="M401.238 23.3769V2.42963H336.888V108.283H401.238V87.1382H358.338V65.2716H395.148V44.0616H358.338V23.3769H401.238Z" fill="white"/>
<path d="M461.391 110.318C477.545 110.318 488.998 103.358 498.399 94.0988L486.085 76.8944C479.001 83.7893 470.527 88.9769 460.729 88.9769C444.244 88.9769 427.296 74.3991 427.296 55.5531C427.296 37.0354 443.648 21.9323 460.795 21.9323C469.998 21.9323 478.736 26.2662 486.019 33.3581L498.399 16.6134C487.21 5.9099 474.897 0.459659 460.994 0.262662C430.937 0.262662 405.581 25.5439 405.581 55.4218C405.581 85.1683 430.606 110.318 461.391 110.318Z" fill="white"/>
<path d="M583.577 108.283L545.576 54.2398L579.803 2.42963H555.043L525.052 48.1985V2.42963H503.669V108.283H525.052V61.9226L557.492 108.283H583.577Z" fill="white"/>
<path d="M589.839 43.3393C602.087 43.3393 609.105 30.4688 609.105 17.664C609.105 6.17257 603.411 0 595.665 0C587.986 0 582.425 6.04123 582.425 13.0675C582.425 20.619 589.045 24.2306 593.282 24.2306C594.01 25.5439 594.209 26.2662 594.209 28.6959C594.209 36.3131 587.522 39.859 582.822 39.859C582.822 40.844 585.271 43.3393 589.839 43.3393Z" fill="white"/>
<path d="M648.271 110.384C671.111 110.384 687 98.1044 687 78.7987C687 62.5136 675.878 53.5831 658.201 45.3093C645.954 39.5963 637.877 37.4294 637.877 31.1255C637.877 25.6752 643.835 21.0787 651.846 21.0787C657.804 21.0787 663.961 23.6396 667.139 29.9435L682.962 18.9774C678.129 6.17257 666.08 0.196997 651.515 0.196997C631.919 0.196997 616.294 12.2795 616.294 30.6002C616.294 47.4762 629.469 53.9771 641.452 59.887C652.64 65.4029 665.418 71.5098 665.418 79.2584C665.418 84.9056 658.665 88.9769 648.602 88.9769C639.4 88.9769 632.581 85.5623 627.88 78.0764L610.733 90.0275C617.883 103.161 630.793 110.384 648.271 110.384Z" fill="white"/>
<path d="M308.05 179.406C310.632 179.406 318.113 172.445 318.113 161.216C318.113 146.967 306.064 133.177 287.13 133.177H258V239.03H298.318C320.298 239.03 331.619 222.548 331.619 206.92C331.619 189.912 318.312 179.406 308.05 179.406ZM288.454 153.862C293.419 153.862 298.119 158.064 298.119 164.04C298.119 170.212 293.154 174.546 288.056 174.546H279.384V153.862H288.454ZM296.332 218.28H279.384V193.195H296.266C306.461 193.195 310.698 199.302 310.698 205.409C310.698 213.552 303.283 218.28 296.332 218.28Z" fill="white"/>
<path d="M406.468 239.03H429.706L378.663 130.55H378.001L327.024 239.03H350.195L357.014 224.255H399.716L406.468 239.03ZM365.356 206.132L378.398 177.83L391.374 206.132H365.356Z" fill="white"/>
<path d="M497.935 132.914V192.21L434.711 131.207H433.652V239.161H455.102V179.865L518.459 241H519.452V132.914H497.935Z" fill="white"/>
<path d="M611.117 239.03L573.116 184.987L607.344 133.177H582.584L552.593 178.946V133.177H531.209V239.03H552.593V192.67L585.033 239.03H611.117Z" fill="white"/>
<path d="M308.05 48.6582C310.632 48.6582 318.113 41.6976 318.113 30.4688C318.113 16.2194 306.064 2.42963 287.13 2.42963H258V108.283H298.318C320.298 108.283 331.619 91.8005 331.619 76.1721C331.619 59.1647 318.312 48.6582 308.05 48.6582ZM288.454 23.1143C293.419 23.1143 298.119 27.3169 298.119 33.2925C298.119 39.465 293.154 43.7989 288.056 43.7989H279.384V23.1143H288.454ZM296.332 87.5322H279.384V62.448H296.266C306.461 62.448 310.698 68.5549 310.698 74.6618C310.698 82.8043 303.283 87.5322 296.332 87.5322Z" stroke="#00120D"/>
<path d="M401.238 23.3769V2.42963H336.888V108.283H401.238V87.1382H358.338V65.2716H395.148V44.0616H358.338V23.3769H401.238Z" stroke="#00120D"/>
<path d="M461.391 110.318C477.545 110.318 488.998 103.358 498.399 94.0988L486.085 76.8944C479.001 83.7893 470.527 88.9769 460.729 88.9769C444.244 88.9769 427.296 74.3991 427.296 55.5531C427.296 37.0354 443.648 21.9323 460.795 21.9323C469.998 21.9323 478.736 26.2662 486.019 33.3581L498.399 16.6134C487.21 5.9099 474.897 0.459659 460.994 0.262662C430.937 0.262662 405.581 25.5439 405.581 55.4218C405.581 85.1683 430.606 110.318 461.391 110.318Z" stroke="#00120D"/>
<path d="M583.577 108.283L545.576 54.2398L579.803 2.42963H555.043L525.052 48.1985V2.42963H503.669V108.283H525.052V61.9226L557.492 108.283H583.577Z" stroke="#00120D"/>
<path d="M589.839 43.3393C602.087 43.3393 609.105 30.4688 609.105 17.664C609.105 6.17257 603.411 0 595.665 0C587.986 0 582.425 6.04123 582.425 13.0675C582.425 20.619 589.045 24.2306 593.282 24.2306C594.01 25.5439 594.209 26.2662 594.209 28.6959C594.209 36.3131 587.522 39.859 582.822 39.859C582.822 40.844 585.271 43.3393 589.839 43.3393Z" stroke="#00120D"/>
<path d="M648.271 110.384C671.111 110.384 687 98.1044 687 78.7987C687 62.5136 675.878 53.5831 658.201 45.3093C645.954 39.5963 637.877 37.4294 637.877 31.1255C637.877 25.6752 643.835 21.0787 651.846 21.0787C657.804 21.0787 663.961 23.6396 667.139 29.9435L682.962 18.9774C678.129 6.17257 666.08 0.196997 651.515 0.196997C631.919 0.196997 616.294 12.2795 616.294 30.6002C616.294 47.4762 629.469 53.9771 641.452 59.887C652.64 65.4029 665.418 71.5098 665.418 79.2584C665.418 84.9056 658.665 88.9769 648.602 88.9769C639.4 88.9769 632.581 85.5623 627.88 78.0764L610.733 90.0275C617.883 103.161 630.793 110.384 648.271 110.384Z" stroke="#00120D"/>
<path d="M308.05 179.406C310.632 179.406 318.113 172.445 318.113 161.216C318.113 146.967 306.064 133.177 287.13 133.177H258V239.03H298.318C320.298 239.03 331.619 222.548 331.619 206.92C331.619 189.912 318.312 179.406 308.05 179.406ZM288.454 153.862C293.419 153.862 298.119 158.064 298.119 164.04C298.119 170.212 293.154 174.546 288.056 174.546H279.384V153.862H288.454ZM296.332 218.28H279.384V193.195H296.266C306.461 193.195 310.698 199.302 310.698 205.409C310.698 213.552 303.283 218.28 296.332 218.28Z" stroke="#00120D"/>
<path d="M406.468 239.03H429.706L378.663 130.55H378.001L327.024 239.03H350.195L357.014 224.255H399.716L406.468 239.03ZM365.356 206.132L378.398 177.83L391.374 206.132H365.356Z" stroke="#00120D"/>
<path d="M497.935 132.914V192.21L434.711 131.207H433.652V239.161H455.102V179.865L518.459 241H519.452V132.914H497.935Z" stroke="#00120D"/>
<path d="M611.117 239.03L573.116 184.987L607.344 133.177H582.584L552.593 178.946V133.177H531.209V239.03H552.593V192.67L585.033 239.03H611.117Z" stroke="#00120D"/>
</svg>
