<svg width="687" height="241" viewBox="0 0 687 241" fill="none" xmlns="http://www.w3.org/2000/svg">
<path d="M228.252 240L-4.57764e-05 120L228.252 0L228.252 240Z" fill="#152D2F"/>
<path d="M228.252 240L-4.57764e-05 120L228.252 0L228.252 240Z" fill="#152D2F"/>
<path fill-rule="evenodd" clip-rule="evenodd" d="M228.252 240L228.252 0L-4.57764e-05 120L228.252 240ZM226.573 237.222L226.573 2.77849L3.6066 120L226.573 237.222Z" fill="white"/>
<path d="M106.574 119.161L69.6505 83.9161L228.252 4.57764e-05L106.574 119.161Z" fill="#17652D"/>
<path d="M106.574 119.161L69.6505 83.9161L228.252 4.57764e-05L106.574 119.161Z" fill="#17652D"/>
<path fill-rule="evenodd" clip-rule="evenodd" d="M106.559 116.826L218.817 6.89102L72.4942 84.3103L106.559 116.826ZM106.574 119.161L228.252 4.57764e-05L69.6505 83.9161L106.574 119.161Z" fill="white"/>
<path d="M228.252 240L-4.57764e-05 120L73.8461 81.3986L228.252 240Z" fill="#0B4224"/>
<path d="M228.252 240L-4.57764e-05 120L73.8461 81.3986L228.252 240Z" fill="#0B4224"/>
<path fill-rule="evenodd" clip-rule="evenodd" d="M228.252 240L73.8461 81.3986L-4.57764e-05 120L228.252 240ZM219.672 233.593L73.5157 83.4651L3.61469 120.004L219.672 233.593Z" fill="white"/>
<path d="M308.05 48.6582C310.632 48.6582 318.113 41.6976 318.113 30.4688C318.113 16.2194 306.064 2.42963 287.13 2.42963H258V108.283H298.318C320.298 108.283 331.619 91.8005 331.619 76.1721C331.619 59.1647 318.312 48.6582 308.05 48.6582ZM288.454 23.1143C293.419 23.1143 298.119 27.3169 298.119 33.2924C298.119 39.465 293.154 43.7989 288.056 43.7989H279.384V23.1143H288.454ZM296.332 87.5322H279.384V62.448H296.266C306.461 62.448 310.698 68.5549 310.698 74.6618C310.698 82.8043 303.283 87.5322 296.332 87.5322Z" fill="#00120D"/>
<path d="M401.238 23.3769V2.42963H336.888V108.283H401.238V87.1382H358.338V65.2716H395.148V44.0616H358.338V23.3769H401.238Z" fill="#00120D"/>
<path d="M461.391 110.318C477.545 110.318 488.998 103.358 498.399 94.0988L486.085 76.8944C479.001 83.7893 470.527 88.9769 460.729 88.9769C444.244 88.9769 427.296 74.3991 427.296 55.5531C427.296 37.0354 443.648 21.9323 460.795 21.9323C469.998 21.9323 478.736 26.2662 486.019 33.3581L498.399 16.6134C487.21 5.9099 474.897 0.459659 460.994 0.262662C430.937 0.262662 405.581 25.5439 405.581 55.4218C405.581 85.1683 430.606 110.318 461.391 110.318Z" fill="#00120D"/>
<path d="M583.577 108.283L545.576 54.2398L579.803 2.42963H555.043L525.052 48.1985V2.42963H503.669V108.283H525.052V61.9226L557.492 108.283H583.577Z" fill="#00120D"/>
<path d="M589.839 43.3393C602.087 43.3393 609.105 30.4688 609.105 17.664C609.105 6.17256 603.411 0 595.665 0C587.986 0 582.425 6.04123 582.425 13.0675C582.425 20.619 589.045 24.2306 593.282 24.2306C594.01 25.5439 594.209 26.2662 594.209 28.6959C594.209 36.3131 587.522 39.859 582.822 39.859C582.822 40.844 585.271 43.3393 589.839 43.3393Z" fill="#00120D"/>
<path d="M648.271 110.384C671.111 110.384 687 98.1044 687 78.7987C687 62.5136 675.878 53.5831 658.201 45.3093C645.954 39.5963 637.877 37.4294 637.877 31.1255C637.877 25.6752 643.835 21.0787 651.846 21.0787C657.804 21.0787 663.961 23.6396 667.139 29.9435L682.962 18.9774C678.129 6.17256 666.08 0.196997 651.515 0.196997C631.919 0.196997 616.294 12.2795 616.294 30.6002C616.294 47.4762 629.469 53.9771 641.452 59.887C652.64 65.4029 665.418 71.5098 665.418 79.2584C665.418 84.9056 658.665 88.9769 648.602 88.9769C639.4 88.9769 632.581 85.5623 627.88 78.0764L610.733 90.0275C617.883 103.161 630.793 110.384 648.271 110.384Z" fill="#00120D"/>
<path d="M308.05 179.406C310.632 179.406 318.113 172.445 318.113 161.216C318.113 146.967 306.064 133.177 287.13 133.177H258V239.03H298.318C320.298 239.03 331.619 222.548 331.619 206.92C331.619 189.912 318.312 179.406 308.05 179.406ZM288.454 153.862C293.419 153.862 298.119 158.064 298.119 164.04C298.119 170.212 293.154 174.546 288.056 174.546H279.384V153.862H288.454ZM296.332 218.28H279.384V193.195H296.266C306.461 193.195 310.698 199.302 310.698 205.409C310.698 213.552 303.283 218.28 296.332 218.28Z" fill="#00120D"/>
<path d="M406.468 239.03H429.706L378.663 130.55H378.001L327.024 239.03H350.195L357.014 224.255H399.716L406.468 239.03ZM365.356 206.132L378.398 177.83L391.374 206.132H365.356Z" fill="#00120D"/>
<path d="M497.935 132.914V192.21L434.711 131.207H433.652V239.161H455.102V179.865L518.459 241H519.452V132.914H497.935Z" fill="#00120D"/>
<path d="M611.117 239.03L573.116 184.987L607.344 133.177H582.584L552.593 178.946V133.177H531.209V239.03H552.593V192.67L585.033 239.03H611.117Z" fill="#00120D"/>
</svg>
