<svg width="185" height="65" viewBox="0 0 185 65" fill="none" xmlns="http://www.w3.org/2000/svg">
<path d="M61.4652 64.629L-8.7738e-05 32.3145L61.4652 1.52588e-05L61.4652 64.629Z" fill="black"/>
<path d="M61.4652 64.629L-8.7738e-05 32.3145L61.4652 1.52588e-05L61.4652 64.629Z" fill="black"/>
<path fill-rule="evenodd" clip-rule="evenodd" d="M61.4652 64.629L61.4652 1.52588e-05L-8.7738e-05 32.3145L61.4652 64.629ZM57.4652 58.0069L57.4652 6.62207L8.5957 32.3145L57.4652 58.0069Z" fill="white"/>
<path fill-rule="evenodd" clip-rule="evenodd" d="M61.4652 64.629L61.4652 1.52588e-05L-8.7738e-05 32.3145L61.4652 64.629ZM61.0133 63.8808L61.0133 0.74823L0.971134 32.3145L61.0133 63.8808Z" fill="white"/>
<path fill-rule="evenodd" clip-rule="evenodd" d="M61.4652 1.52588e-05L61.4652 64.629L-8.7738e-05 32.3145L61.4652 1.52588e-05ZM61.0133 0.74823L61.0133 63.8808L0.971134 32.3145L61.0133 0.74823Z" fill="white"/>
<path d="M28.699 32.0885L18.7561 22.5976L61.4655 2.67029e-05L28.699 32.0885Z" fill="#FFCF00"/>
<path d="M28.699 32.0885L18.7561 22.5976L61.4655 2.67029e-05L28.699 32.0885Z" fill="#FFCF00"/>
<path fill-rule="evenodd" clip-rule="evenodd" d="M28.6634 26.5248L38.9781 16.4235L25.5334 23.5371L28.6634 26.5248ZM28.699 32.0885L61.4655 2.67029e-05L18.7561 22.5976L28.699 32.0885Z" fill="white"/>
<path fill-rule="evenodd" clip-rule="evenodd" d="M28.695 31.4599L58.9247 1.85568L19.5219 22.7037L28.695 31.4599ZM28.699 32.0885L61.4655 2.67029e-05L18.7561 22.5976L28.699 32.0885Z" fill="white"/>
<path fill-rule="evenodd" clip-rule="evenodd" d="M18.7561 22.5976L28.699 32.0885L61.4655 2.67029e-05L18.7561 22.5976ZM19.5219 22.7037L28.695 31.4599L58.9247 1.85568L19.5219 22.7037Z" fill="white"/>
<path d="M61.4652 64.629L-8.7738e-05 32.3145L19.8857 21.9196L61.4652 64.629Z" fill="#D10000"/>
<path d="M61.4652 64.629L-8.7738e-05 32.3145L19.8857 21.9196L61.4652 64.629Z" fill="#D10000"/>
<path fill-rule="evenodd" clip-rule="evenodd" d="M61.4652 64.629L19.8857 21.9196L-8.7738e-05 32.3145L61.4652 64.629ZM41.0174 49.3597L19.0981 26.8448L8.61504 32.3247L41.0174 49.3597Z" fill="white"/>
<path fill-rule="evenodd" clip-rule="evenodd" d="M61.4652 64.629L19.8857 21.9196L-8.7738e-05 32.3145L61.4652 64.629ZM59.1549 62.9037L19.7968 22.4761L0.973312 32.3156L59.1549 62.9037Z" fill="white"/>
<path fill-rule="evenodd" clip-rule="evenodd" d="M19.8857 21.9196L-8.7738e-05 32.3145L61.4652 64.629L19.8857 21.9196ZM19.7968 22.4761L0.973312 32.3156L59.1549 62.9037L19.7968 22.4761Z" fill="white"/>
<path d="M82.954 13.1031C83.6493 13.1031 85.6638 11.2287 85.6638 8.2049C85.6638 4.36771 82.4191 0.654298 77.3204 0.654298H69.4761V29.1591H80.3333C86.2521 29.1591 89.3007 24.7207 89.3007 20.5122C89.3007 15.9323 85.7173 13.1031 82.954 13.1031ZM77.6769 6.22441C79.014 6.22441 80.2798 7.35612 80.2798 8.96527C80.2798 10.6275 78.9427 11.7945 77.57 11.7945H75.2345V6.22441H77.6769ZM79.7984 23.5713H75.2345V16.8165H79.7806C82.5261 16.8165 83.6671 18.461 83.6671 20.1055C83.6671 22.2982 81.6704 23.5713 79.7984 23.5713Z" fill="white"/>
<path d="M108.048 6.29515V0.654298H90.7198V29.1591H108.048V23.4653H96.496V17.5768H106.408V11.8653H96.496V6.29515H108.048Z" fill="white"/>
<path d="M124.247 29.7073C128.597 29.7073 131.681 27.8329 134.213 25.3396L130.897 20.7067C128.989 22.5634 126.707 23.9604 124.068 23.9604C119.629 23.9604 115.065 20.0348 115.065 14.9598C115.065 9.97319 119.469 5.90612 124.086 5.90612C126.564 5.90612 128.918 7.07319 130.879 8.98295L134.213 4.47381C131.2 1.59149 127.884 0.123811 124.14 0.0707622C116.046 0.0707622 109.218 6.87868 109.218 14.9244C109.218 22.9348 115.957 29.7073 124.247 29.7073Z" fill="white"/>
<path d="M157.15 29.1591L146.917 14.6061L156.134 0.654298H149.466L141.39 12.9793V0.654298H135.632V29.1591H141.39V16.675L150.126 29.1591H157.15Z" fill="white"/>
<path d="M158.836 11.6708C162.134 11.6708 164.024 8.2049 164.024 4.75673C164.024 1.66222 162.491 3.05176e-05 160.405 3.05176e-05C158.337 3.05176e-05 156.84 1.62686 156.84 3.51893C156.84 5.55246 158.622 6.52502 159.763 6.52502C159.959 6.87868 160.013 7.07319 160.013 7.72746C160.013 9.77868 158.212 10.7336 156.947 10.7336C156.947 10.9988 157.606 11.6708 158.836 11.6708Z" fill="white"/>
<path d="M174.571 29.725C180.722 29.725 185 26.4183 185 21.2195C185 16.8342 182.005 14.4293 177.245 12.2012C173.947 10.6628 171.772 10.0793 171.772 8.38173C171.772 6.91405 173.377 5.67624 175.534 5.67624C177.138 5.67624 178.796 6.36588 179.652 8.06344L183.913 5.11039C182.611 1.66222 179.367 0.0530792 175.445 0.0530792C170.168 0.0530792 165.96 3.30673 165.96 8.24027C165.96 12.7848 169.508 14.5354 172.735 16.1268C175.748 17.6122 179.189 19.2567 179.189 21.3433C179.189 22.864 177.37 23.9604 174.66 23.9604C172.182 23.9604 170.346 23.0409 169.08 21.025L164.463 24.2433C166.388 27.7799 169.865 29.725 174.571 29.725Z" fill="white"/>
<path d="M82.954 48.3117C83.6493 48.3117 85.6638 46.4373 85.6638 43.4135C85.6638 39.5763 82.4191 35.8629 77.3204 35.8629H69.4761V64.3678H80.3333C86.2521 64.3678 89.3007 59.9294 89.3007 55.7208C89.3007 51.141 85.7173 48.3117 82.954 48.3117ZM77.6769 41.4331C79.014 41.4331 80.2798 42.5648 80.2798 44.1739C80.2798 45.8361 78.9427 47.0032 77.57 47.0032H75.2345V41.4331H77.6769ZM79.7984 58.78H75.2345V52.0251H79.7806C82.5261 52.0251 83.6671 53.6696 83.6671 55.3141C83.6671 57.5068 81.6704 58.78 79.7984 58.78Z" fill="white"/>
<path d="M109.457 64.3678H115.714L101.969 35.1556H101.791L88.0634 64.3678H94.3032L96.1394 60.3891H107.638L109.457 64.3678ZM98.3857 55.5086L101.898 47.8873L105.392 55.5086H98.3857Z" fill="white"/>
<path d="M134.088 35.7922V51.7599L117.062 35.3324H116.777V64.4032H122.553V48.4355L139.614 64.8983H139.882V35.7922H134.088Z" fill="white"/>
<path d="M164.566 64.3678L154.333 49.8148L163.55 35.8629H156.882L148.806 48.1879V35.8629H143.048V64.3678H148.806V51.8837L157.542 64.3678H164.566Z" fill="white"/>
</svg>
