<svg width="257" height="91" viewBox="0 0 257 91" fill="none" xmlns="http://www.w3.org/2000/svg">
<path d="M85.3867 89.7817L-2.28882e-05 44.8909L85.3867 3.05176e-05L85.3867 89.7817Z" fill="black"/>
<path d="M85.3867 89.7817L-2.28882e-05 44.8909L85.3867 3.05176e-05L85.3867 89.7817Z" fill="black"/>
<path fill-rule="evenodd" clip-rule="evenodd" d="M85.3867 89.7817L85.3867 3.05176e-05L-2.28882e-05 44.8909L85.3867 89.7817ZM81.3867 83.1596L81.3867 6.62209L8.59576 44.8909L81.3867 83.1596Z" fill="white"/>
<path fill-rule="evenodd" clip-rule="evenodd" d="M85.3867 89.7817L85.3867 3.05176e-05L-2.28882e-05 44.8909L85.3867 89.7817ZM84.7589 88.7423L84.7589 1.03944L1.34919 44.8909L84.7589 88.7423Z" fill="white"/>
<path fill-rule="evenodd" clip-rule="evenodd" d="M85.3867 3.05176e-05L85.3867 89.7817L-2.28882e-05 44.8909L85.3867 3.05176e-05ZM84.7589 1.03944L84.7589 88.7423L1.34919 44.8909L84.7589 1.03944Z" fill="white"/>
<path d="M39.8683 44.577L26.0557 31.3922L85.387 4.19617e-05L39.8683 44.577Z" fill="#FFCF00"/>
<path d="M39.8683 44.577L26.0557 31.3922L85.387 4.19617e-05L39.8683 44.577Z" fill="#FFCF00"/>
<path fill-rule="evenodd" clip-rule="evenodd" d="M39.8327 39.0132L62.8996 16.4235L32.8331 32.3317L39.8327 39.0132ZM39.8683 44.577L85.387 4.19617e-05L26.0557 31.3922L39.8683 44.577Z" fill="white"/>
<path fill-rule="evenodd" clip-rule="evenodd" d="M39.8627 43.7037L81.8573 2.57789L27.1195 31.5397L39.8627 43.7037ZM39.8683 44.577L85.387 4.19617e-05L26.0557 31.3922L39.8683 44.577Z" fill="white"/>
<path fill-rule="evenodd" clip-rule="evenodd" d="M26.0557 31.3922L39.8683 44.577L85.387 4.19617e-05L26.0557 31.3922ZM27.1195 31.5397L39.8627 43.7037L81.8573 2.57789L27.1195 31.5397Z" fill="white"/>
<path d="M85.3867 89.7817L-2.28882e-05 44.8909L27.6251 30.4504L85.3867 89.7817Z" fill="#D10000"/>
<path d="M85.3867 89.7817L-2.28882e-05 44.8909L27.6251 30.4504L85.3867 89.7817Z" fill="#D10000"/>
<path fill-rule="evenodd" clip-rule="evenodd" d="M85.3867 89.7817L27.6251 30.4504L-2.28882e-05 44.8909L85.3867 89.7817ZM64.9389 74.5124L26.8375 35.3757L8.6151 44.901L64.9389 74.5124Z" fill="white"/>
<path fill-rule="evenodd" clip-rule="evenodd" d="M85.3867 89.7817L27.6251 30.4504L-2.28882e-05 44.8909L85.3867 89.7817ZM82.1772 87.385L27.5015 31.2235L1.35221 44.8924L82.1772 87.385Z" fill="white"/>
<path fill-rule="evenodd" clip-rule="evenodd" d="M27.6251 30.4504L-2.28882e-05 44.8909L85.3867 89.7817L27.6251 30.4504ZM27.5015 31.2235L1.35221 44.8924L82.1772 87.385L27.5015 31.2235Z" fill="white"/>
<path d="M115.239 18.2026C116.204 18.2026 119.003 15.5987 119.003 11.3981C119.003 6.06756 114.496 0.908945 107.412 0.908945H96.5154V40.5075H111.598C119.82 40.5075 124.055 34.3417 124.055 28.4953C124.055 22.133 119.077 18.2026 115.239 18.2026ZM107.908 8.64687C109.765 8.64687 111.524 10.219 111.524 12.4544C111.524 14.7635 109.666 16.3848 107.759 16.3848H104.515V8.64687H107.908ZM110.855 32.745H104.515V23.3612H110.83C114.644 23.3612 116.229 25.6458 116.229 27.9303C116.229 30.9763 113.455 32.745 110.855 32.745Z" fill="#00120D"/>
<path d="M150.099 8.74513V0.908945H126.027V40.5075H150.099V32.5976H134.051V24.4175H147.821V16.4831H134.051V8.74513H150.099Z" fill="#00120D"/>
<path d="M172.602 41.269C178.645 41.269 182.929 38.6651 186.446 35.2015L181.84 28.7655C179.19 31.3448 176.02 33.2854 172.354 33.2854C166.188 33.2854 159.847 27.832 159.847 20.7819C159.847 13.8546 165.965 8.20471 172.379 8.20471C175.822 8.20471 179.091 9.82599 181.815 12.479L186.446 6.21495C182.261 2.21088 177.654 0.172 172.453 0.0983052C161.21 0.0983052 151.724 9.55577 151.724 20.7328C151.724 31.8607 161.086 41.269 172.602 41.269Z" fill="#00120D"/>
<path d="M218.31 40.5075L204.095 20.2906L216.899 0.908945H207.636L196.417 18.0306V0.908945H188.418V40.5075H196.417V23.1647L208.553 40.5075H218.31Z" fill="#00120D"/>
<path d="M220.653 16.2128C225.235 16.2128 227.86 11.3981 227.86 6.60799C227.86 2.30914 225.73 4.57764e-05 222.833 4.57764e-05C219.96 4.57764e-05 217.879 2.26001 217.879 4.88845C217.879 7.71341 220.356 9.06448 221.941 9.06448C222.214 9.55577 222.288 9.82599 222.288 10.7349C222.288 13.5844 219.786 14.9109 218.028 14.9109C218.028 15.2794 218.944 16.2128 220.653 16.2128Z" fill="#00120D"/>
<path d="M242.512 41.2936C251.056 41.2936 257 36.6999 257 29.4779C257 23.3858 252.839 20.045 246.227 16.9498C241.645 14.8127 238.624 14.002 238.624 11.6438C238.624 9.6049 240.853 7.88536 243.849 7.88536C246.078 7.88536 248.381 8.84339 249.57 11.2016L255.489 7.09929C253.681 2.30914 249.174 0.0737403 243.725 0.0737403C236.395 0.0737403 230.55 4.59367 230.55 11.4473C230.55 17.7604 235.478 20.1924 239.961 22.4032C244.146 24.4666 248.926 26.7512 248.926 29.6498C248.926 31.7624 246.4 33.2854 242.636 33.2854C239.193 33.2854 236.642 32.008 234.884 29.2077L228.469 33.6785C231.144 38.5914 235.974 41.2936 242.512 41.2936Z" fill="#00120D"/>
<path d="M115.239 67.114C116.204 67.114 119.003 64.5101 119.003 60.3095C119.003 54.9789 114.496 49.8203 107.412 49.8203H96.5154V89.4188H111.598C119.82 89.4188 124.055 83.2531 124.055 77.4066C124.055 71.0443 119.077 67.114 115.239 67.114ZM107.908 57.5582C109.765 57.5582 111.524 59.1304 111.524 61.3658C111.524 63.6749 109.666 65.2962 107.759 65.2962H104.515V57.5582H107.908ZM110.855 81.6563H104.515V72.2726H110.83C114.644 72.2726 116.229 74.5571 116.229 76.8416C116.229 79.8877 113.455 81.6563 110.855 81.6563Z" fill="#00120D"/>
<path d="M152.056 89.4188H160.749L141.654 48.8377H141.407L122.337 89.4188H131.005L133.556 83.8917H149.53L152.056 89.4188ZM136.676 77.1118L141.555 66.5244L146.409 77.1118H136.676Z" fill="#00120D"/>
<path d="M186.273 49.722V71.9041L162.621 49.0834H162.225V89.468H170.249V67.2859L193.95 90.1558H194.322V49.722H186.273Z" fill="#00120D"/>
<path d="M228.613 89.4188L214.397 69.202L227.201 49.8203H217.939L206.72 66.942V49.8203H198.72V89.4188H206.72V72.076L218.855 89.4188H228.613Z" fill="#00120D"/>
</svg>
