<svg width="185" height="65" viewBox="0 0 185 65" fill="none" xmlns="http://www.w3.org/2000/svg">
<path d="M61.4652 64.629L-0.000118256 32.3145L61.4652 7.62939e-06L61.4652 64.629Z" fill="black"/>
<path d="M61.4652 64.629L-0.000118256 32.3145L61.4652 7.62939e-06L61.4652 64.629Z" fill="black"/>
<path fill-rule="evenodd" clip-rule="evenodd" d="M61.4652 64.629L61.4652 7.62939e-06L-0.000118256 32.3145L61.4652 64.629ZM57.4652 58.0069L57.4652 6.62206L8.59567 32.3145L57.4652 58.0069Z" fill="white"/>
<path fill-rule="evenodd" clip-rule="evenodd" d="M61.4652 64.629L61.4652 7.62939e-06L-0.000118256 32.3145L61.4652 64.629ZM61.0132 63.8807L61.0132 0.748222L0.971104 32.3145L61.0132 63.8807Z" fill="white"/>
<path fill-rule="evenodd" clip-rule="evenodd" d="M61.4652 7.62939e-06L61.4652 64.629L-0.000118256 32.3145L61.4652 7.62939e-06ZM61.0132 0.748222L61.0132 63.8807L0.971104 32.3145L61.0132 0.748222Z" fill="white"/>
<path d="M28.699 32.0885L18.756 22.5976L61.4654 2.67029e-05L28.699 32.0885Z" fill="#FFCF00"/>
<path d="M28.699 32.0885L18.756 22.5976L61.4654 2.67029e-05L28.699 32.0885Z" fill="#FFCF00"/>
<path fill-rule="evenodd" clip-rule="evenodd" d="M28.6634 26.5248L38.978 16.4235L25.5334 23.5371L28.6634 26.5248ZM28.699 32.0885L61.4654 2.67029e-05L18.756 22.5976L28.699 32.0885Z" fill="white"/>
<path fill-rule="evenodd" clip-rule="evenodd" d="M28.6949 31.4599L58.9246 1.85568L19.5218 22.7037L28.6949 31.4599ZM28.699 32.0885L61.4654 2.67029e-05L18.756 22.5976L28.699 32.0885Z" fill="white"/>
<path fill-rule="evenodd" clip-rule="evenodd" d="M18.756 22.5976L28.699 32.0885L61.4654 2.67029e-05L18.756 22.5976ZM19.5218 22.7037L28.6949 31.4599L58.9246 1.85568L19.5218 22.7037Z" fill="white"/>
<path d="M61.4652 64.629L-0.000118256 32.3145L19.8857 21.9196L61.4652 64.629Z" fill="#D10000"/>
<path d="M61.4652 64.629L-0.000118256 32.3145L19.8857 21.9196L61.4652 64.629Z" fill="#D10000"/>
<path fill-rule="evenodd" clip-rule="evenodd" d="M61.4652 64.629L19.8857 21.9196L-0.000118256 32.3145L61.4652 64.629ZM41.0173 49.3597L19.0981 26.8448L8.61501 32.3246L41.0173 49.3597Z" fill="white"/>
<path fill-rule="evenodd" clip-rule="evenodd" d="M61.4652 64.629L19.8857 21.9196L-0.000118256 32.3145L61.4652 64.629ZM59.1548 62.9037L19.7967 22.4761L0.973282 32.3156L59.1548 62.9037Z" fill="white"/>
<path fill-rule="evenodd" clip-rule="evenodd" d="M19.8857 21.9196L-0.000118256 32.3145L61.4652 64.629L19.8857 21.9196ZM19.7967 22.4761L0.973282 32.3156L59.1548 62.9037L19.7967 22.4761Z" fill="white"/>
<path d="M82.954 13.1031C83.6493 13.1031 85.6638 11.2287 85.6638 8.20489C85.6638 4.36769 82.4191 0.654283 77.3204 0.654283H69.4761V29.1591H80.3333C86.2521 29.1591 89.3007 24.7207 89.3007 20.5122C89.3007 15.9323 85.7173 13.1031 82.954 13.1031ZM77.6769 6.2244C79.014 6.2244 80.2798 7.35611 80.2798 8.96525C80.2798 10.6274 78.9427 11.7945 77.57 11.7945H75.2345V6.2244H77.6769ZM79.7984 23.5713H75.2345V16.8165H79.7806C82.5261 16.8165 83.6671 18.461 83.6671 20.1055C83.6671 22.2982 81.6704 23.5713 79.7984 23.5713Z" fill="white"/>
<path d="M108.048 6.29513V0.654283H90.7198V29.1591H108.048V23.4652H96.496V17.5768H106.408V11.8652H96.496V6.29513H108.048Z" fill="white"/>
<path d="M124.247 29.7073C128.597 29.7073 131.681 27.8329 134.213 25.3396L130.897 20.7067C128.989 22.5634 126.707 23.9604 124.068 23.9604C119.629 23.9604 115.065 20.0348 115.065 14.9598C115.065 9.97318 119.469 5.90611 124.086 5.90611C126.564 5.90611 128.918 7.07318 130.879 8.98293L134.213 4.47379C131.2 1.59148 127.884 0.123796 124.14 0.0707469C116.046 0.0707469 109.218 6.87867 109.218 14.9244C109.218 22.9347 115.957 29.7073 124.247 29.7073Z" fill="white"/>
<path d="M157.15 29.1591L146.917 14.6061L156.134 0.654283H149.466L141.39 12.9793V0.654283H135.632V29.1591H141.39V16.675L150.126 29.1591H157.15Z" fill="white"/>
<path d="M158.836 11.6707C162.134 11.6707 164.024 8.20489 164.024 4.75672C164.024 1.66221 162.491 1.52588e-05 160.405 1.52588e-05C158.337 1.52588e-05 156.84 1.62684 156.84 3.51891C156.84 5.55245 158.622 6.52501 159.763 6.52501C159.959 6.87867 160.013 7.07318 160.013 7.72745C160.013 9.77866 158.212 10.7335 156.947 10.7335C156.947 10.9988 157.606 11.6707 158.836 11.6707Z" fill="white"/>
<path d="M174.571 29.725C180.722 29.725 185 26.4183 185 21.2195C185 16.8341 182.005 14.4293 177.245 12.2012C173.947 10.6628 171.772 10.0793 171.772 8.38171C171.772 6.91403 173.377 5.67623 175.534 5.67623C177.138 5.67623 178.796 6.36586 179.652 8.06342L183.913 5.11038C182.611 1.66221 179.367 0.053064 175.445 0.053064C170.168 0.053064 165.96 3.30672 165.96 8.24025C165.96 12.7848 169.508 14.5354 172.735 16.1268C175.748 17.6122 179.189 19.2567 179.189 21.3433C179.189 22.864 177.37 23.9604 174.66 23.9604C172.182 23.9604 170.346 23.0408 169.08 21.025L164.463 24.2433C166.388 27.7799 169.865 29.725 174.571 29.725Z" fill="white"/>
<path d="M82.954 48.3117C83.6493 48.3117 85.6638 46.4373 85.6638 43.4135C85.6638 39.5763 82.4191 35.8629 77.3204 35.8629H69.4761V64.3678H80.3333C86.2521 64.3678 89.3007 59.9294 89.3007 55.7208C89.3007 51.141 85.7173 48.3117 82.954 48.3117ZM77.6769 41.433C79.014 41.433 80.2798 42.5647 80.2798 44.1739C80.2798 45.8361 78.9427 47.0032 77.57 47.0032H75.2345V41.433H77.6769ZM79.7984 58.78H75.2345V52.0251H79.7806C82.5261 52.0251 83.6671 53.6696 83.6671 55.3141C83.6671 57.5068 81.6704 58.78 79.7984 58.78Z" fill="white"/>
<path d="M109.457 64.3678H115.714L101.969 35.1556H101.791L88.0634 64.3678H94.3032L96.1394 60.3891H107.638L109.457 64.3678ZM98.3857 55.5086L101.898 47.8873L105.392 55.5086H98.3857Z" fill="white"/>
<path d="M134.088 35.7922V51.7599L117.062 35.3324H116.777V64.4031H122.553V48.4355L139.614 64.8983H139.882V35.7922H134.088Z" fill="white"/>
<path d="M164.566 64.3678L154.333 49.8147L163.55 35.8629H156.882L148.806 48.1879V35.8629H143.048V64.3678H148.806V51.8836L157.542 64.3678H164.566Z" fill="white"/>
</svg>
